<mxfile host="app.diagrams.net" agent="Mozilla/5.0 (Windows NT 10.0; Win64; x64) AppleWebKit/537.36 (KHTML, like Gecko) Chrome/135.0.0.0 Safari/537.36 Edg/135.0.0.0" version="27.1.5">
  <diagram name="PÃ¡gina-1" id="ch5RK8SKxh1X9XCOE-ni">
    <mxGraphModel grid="1" page="1" gridSize="10" guides="1" tooltips="1" connect="1" arrows="1" fold="1" pageScale="1" pageWidth="2000" pageHeight="2000" math="0" shadow="0">
      <root>
        <mxCell id="0" />
        <mxCell id="1" parent="0" />
        <mxCell id="OfP7TetDrFhxJzdB7sys-6" style="edgeStyle=orthogonalEdgeStyle;rounded=0;orthogonalLoop=1;jettySize=auto;html=1;endArrow=none;startFill=0;" edge="1" parent="1" source="OfP7TetDrFhxJzdB7sys-1" target="OfP7TetDrFhxJzdB7sys-2">
          <mxGeometry relative="1" as="geometry" />
        </mxCell>
        <mxCell id="OfP7TetDrFhxJzdB7sys-1" value="Professor" style="shape=umlActor;verticalLabelPosition=bottom;verticalAlign=top;html=1;outlineConnect=0;" vertex="1" parent="1">
          <mxGeometry x="-90" y="40" width="30" height="60" as="geometry" />
        </mxCell>
        <mxCell id="OfP7TetDrFhxJzdB7sys-13" style="edgeStyle=orthogonalEdgeStyle;rounded=0;orthogonalLoop=1;jettySize=auto;html=1;endArrow=none;startFill=0;" edge="1" parent="1" source="OfP7TetDrFhxJzdB7sys-2" target="OfP7TetDrFhxJzdB7sys-3">
          <mxGeometry relative="1" as="geometry" />
        </mxCell>
        <mxCell id="OfP7TetDrFhxJzdB7sys-2" value=":TransacaoView" style="rounded=0;whiteSpace=wrap;html=1;" vertex="1" parent="1">
          <mxGeometry x="390" y="40" width="120" height="60" as="geometry" />
        </mxCell>
        <mxCell id="OfP7TetDrFhxJzdB7sys-16" style="edgeStyle=orthogonalEdgeStyle;rounded=0;orthogonalLoop=1;jettySize=auto;html=1;endArrow=none;startFill=0;" edge="1" parent="1" source="OfP7TetDrFhxJzdB7sys-3" target="OfP7TetDrFhxJzdB7sys-4">
          <mxGeometry relative="1" as="geometry" />
        </mxCell>
        <mxCell id="OfP7TetDrFhxJzdB7sys-21" style="edgeStyle=orthogonalEdgeStyle;rounded=0;orthogonalLoop=1;jettySize=auto;html=1;endArrow=none;startFill=0;" edge="1" parent="1" source="OfP7TetDrFhxJzdB7sys-3" target="OfP7TetDrFhxJzdB7sys-5">
          <mxGeometry relative="1" as="geometry" />
        </mxCell>
        <mxCell id="OfP7TetDrFhxJzdB7sys-3" value=":TransacaoController" style="rounded=0;whiteSpace=wrap;html=1;" vertex="1" parent="1">
          <mxGeometry x="390" y="300" width="120" height="60" as="geometry" />
        </mxCell>
        <mxCell id="OfP7TetDrFhxJzdB7sys-4" value=":TransacaoRepository" style="rounded=0;whiteSpace=wrap;html=1;" vertex="1" parent="1">
          <mxGeometry x="390" y="560" width="120" height="60" as="geometry" />
        </mxCell>
        <mxCell id="OfP7TetDrFhxJzdB7sys-5" value="Servico de email" style="shape=umlActor;verticalLabelPosition=bottom;verticalAlign=top;html=1;outlineConnect=0;" vertex="1" parent="1">
          <mxGeometry x="880" y="300" width="30" height="60" as="geometry" />
        </mxCell>
        <mxCell id="OfP7TetDrFhxJzdB7sys-7" value="1. acessarTelaEnvio()" style="text;html=1;align=center;verticalAlign=middle;whiteSpace=wrap;rounded=0;" vertex="1" parent="1">
          <mxGeometry x="-10" y="16" width="120" height="30" as="geometry" />
        </mxCell>
        <mxCell id="OfP7TetDrFhxJzdB7sys-8" value="" style="endArrow=classic;html=1;rounded=0;exitX=1;exitY=0.5;exitDx=0;exitDy=0;" edge="1" parent="1" source="OfP7TetDrFhxJzdB7sys-7">
          <mxGeometry width="50" height="50" relative="1" as="geometry">
            <mxPoint x="180" y="136" as="sourcePoint" />
            <mxPoint x="160" y="31" as="targetPoint" />
          </mxGeometry>
        </mxCell>
        <mxCell id="OfP7TetDrFhxJzdB7sys-9" value="1.1 exibeFormulario()" style="text;html=1;align=center;verticalAlign=middle;whiteSpace=wrap;rounded=0;" vertex="1" parent="1">
          <mxGeometry x="230" y="70" width="120" height="30" as="geometry" />
        </mxCell>
        <mxCell id="OfP7TetDrFhxJzdB7sys-10" value="" style="endArrow=open;html=1;rounded=0;exitX=0;exitY=0.5;exitDx=0;exitDy=0;endFill=0;dashed=1;dashPattern=8 8;" edge="1" parent="1" source="OfP7TetDrFhxJzdB7sys-9">
          <mxGeometry width="50" height="50" relative="1" as="geometry">
            <mxPoint x="250" y="120" as="sourcePoint" />
            <mxPoint x="190" y="85" as="targetPoint" />
          </mxGeometry>
        </mxCell>
        <mxCell id="OfP7TetDrFhxJzdB7sys-11" value="2. confirmarTransferencia(alunoId, quantidade, mensagem)" style="text;html=1;align=center;verticalAlign=middle;whiteSpace=wrap;rounded=0;" vertex="1" parent="1">
          <mxGeometry x="-50" y="40" width="320" height="30" as="geometry" />
        </mxCell>
        <mxCell id="OfP7TetDrFhxJzdB7sys-12" value="" style="endArrow=classic;html=1;rounded=0;exitX=1;exitY=0.5;exitDx=0;exitDy=0;" edge="1" parent="1" source="OfP7TetDrFhxJzdB7sys-11">
          <mxGeometry width="50" height="50" relative="1" as="geometry">
            <mxPoint x="200" y="66" as="sourcePoint" />
            <mxPoint x="300" y="55" as="targetPoint" />
          </mxGeometry>
        </mxCell>
        <mxCell id="OfP7TetDrFhxJzdB7sys-14" value="2.1 [Se saldo for suficiente]&lt;div&gt;POST api/transacoes(remetenteId, destinatarioId, instituicaoId, valor, mensagem)&lt;/div&gt;" style="text;html=1;align=center;verticalAlign=middle;whiteSpace=wrap;rounded=0;" vertex="1" parent="1">
          <mxGeometry x="470" y="190" width="460" height="30" as="geometry" />
        </mxCell>
        <mxCell id="OfP7TetDrFhxJzdB7sys-15" value="" style="endArrow=classic;html=1;rounded=0;" edge="1" parent="1">
          <mxGeometry width="50" height="50" relative="1" as="geometry">
            <mxPoint x="460" y="190" as="sourcePoint" />
            <mxPoint x="460" y="220" as="targetPoint" />
          </mxGeometry>
        </mxCell>
        <mxCell id="OfP7TetDrFhxJzdB7sys-17" value="2.1.1 criarTransacao(transacaoDTO:Transacao)" style="text;html=1;align=center;verticalAlign=middle;whiteSpace=wrap;rounded=0;" vertex="1" parent="1">
          <mxGeometry x="470" y="450" width="230" height="30" as="geometry" />
        </mxCell>
        <mxCell id="OfP7TetDrFhxJzdB7sys-18" value="" style="endArrow=classic;html=1;rounded=0;" edge="1" parent="1">
          <mxGeometry width="50" height="50" relative="1" as="geometry">
            <mxPoint x="461" y="451" as="sourcePoint" />
            <mxPoint x="461" y="481" as="targetPoint" />
          </mxGeometry>
        </mxCell>
        <mxCell id="OfP7TetDrFhxJzdB7sys-20" value="2.1.3 resposta(transacaoRepository.save):String" style="text;html=1;align=center;verticalAlign=middle;whiteSpace=wrap;rounded=0;" vertex="1" parent="1">
          <mxGeometry x="190" y="450" width="240" height="30" as="geometry" />
        </mxCell>
        <mxCell id="OfP7TetDrFhxJzdB7sys-22" value="2.1.2 notificarAluno(aluno.email, motivo, quantidade)" style="text;html=1;align=center;verticalAlign=middle;whiteSpace=wrap;rounded=0;" vertex="1" parent="1">
          <mxGeometry x="530" y="300" width="290" height="30" as="geometry" />
        </mxCell>
        <mxCell id="OfP7TetDrFhxJzdB7sys-23" value="" style="endArrow=classic;html=1;rounded=0;exitX=1;exitY=0.5;exitDx=0;exitDy=0;" edge="1" parent="1" source="OfP7TetDrFhxJzdB7sys-22">
          <mxGeometry width="50" height="50" relative="1" as="geometry">
            <mxPoint x="580" y="410" as="sourcePoint" />
            <mxPoint x="860" y="315" as="targetPoint" />
          </mxGeometry>
        </mxCell>
        <mxCell id="OfP7TetDrFhxJzdB7sys-24" value="" style="endArrow=open;html=1;rounded=0;endFill=0;dashed=1;dashPattern=8 8;exitX=0;exitY=0.5;exitDx=0;exitDy=0;" edge="1" parent="1" source="OfP7TetDrFhxJzdB7sys-26">
          <mxGeometry width="50" height="50" relative="1" as="geometry">
            <mxPoint x="560" y="450" as="sourcePoint" />
            <mxPoint x="630" y="355" as="targetPoint" />
          </mxGeometry>
        </mxCell>
        <mxCell id="OfP7TetDrFhxJzdB7sys-25" value="" style="endArrow=open;html=1;rounded=0;endFill=0;dashed=1;dashPattern=8 8;" edge="1" parent="1">
          <mxGeometry width="50" height="50" relative="1" as="geometry">
            <mxPoint x="438" y="480" as="sourcePoint" />
            <mxPoint x="438" y="450" as="targetPoint" />
          </mxGeometry>
        </mxCell>
        <mxCell id="OfP7TetDrFhxJzdB7sys-26" value="2.1.4 emailEnviado" style="text;html=1;align=center;verticalAlign=middle;whiteSpace=wrap;rounded=0;" vertex="1" parent="1">
          <mxGeometry x="660" y="340" width="110" height="30" as="geometry" />
        </mxCell>
        <mxCell id="OfP7TetDrFhxJzdB7sys-27" value="2.1.5 resposta(trancacaoRepository.save):String" style="text;html=1;align=center;verticalAlign=middle;whiteSpace=wrap;rounded=0;" vertex="1" parent="1">
          <mxGeometry x="190" y="190" width="240" height="30" as="geometry" />
        </mxCell>
        <mxCell id="OfP7TetDrFhxJzdB7sys-30" value="" style="endArrow=open;html=1;rounded=0;endFill=0;dashed=1;dashPattern=8 8;" edge="1" parent="1">
          <mxGeometry width="50" height="50" relative="1" as="geometry">
            <mxPoint x="438" y="220" as="sourcePoint" />
            <mxPoint x="438" y="190" as="targetPoint" />
          </mxGeometry>
        </mxCell>
        <mxCell id="OfP7TetDrFhxJzdB7sys-31" value="2.1.6 mostrarMensagem(&quot;Transferencia realizada com sucesso!&quot;)" style="text;html=1;align=center;verticalAlign=middle;whiteSpace=wrap;rounded=0;" vertex="1" parent="1">
          <mxGeometry x="10" y="90" width="360" height="30" as="geometry" />
        </mxCell>
        <mxCell id="OfP7TetDrFhxJzdB7sys-32" value="" style="endArrow=open;html=1;rounded=0;endFill=0;dashed=1;dashPattern=8 8;" edge="1" parent="1">
          <mxGeometry width="50" height="50" relative="1" as="geometry">
            <mxPoint x="10" y="104.58" as="sourcePoint" />
            <mxPoint x="-30" y="104.58" as="targetPoint" />
          </mxGeometry>
        </mxCell>
      </root>
    </mxGraphModel>
  </diagram>
</mxfile>
